<?xml version="1.0" standalone="no"?><!DOCTYPE svg PUBLIC "-//W3C//DTD SVG 1.1//EN" "http://www.w3.org/Graphics/SVG/1.1/DTD/svg11.dtd"><svg t="1645943099992" class="icon" viewBox="0 0 1024 1024" version="1.1" xmlns="http://www.w3.org/2000/svg" p-id="1817" xmlns:xlink="http://www.w3.org/1999/xlink" width="200" height="200"><defs><style type="text/css"></style></defs><path d="M508.416 5.632C227.84 5.632 0.512 232.96 0.512 513.536c0 280.576 227.328 507.904 507.904 507.904 280.576 0 507.904-227.328 507.904-507.904 0.512-280.064-227.328-507.904-507.904-507.904z m0 833.024c-155.648 0-281.6-122.88-281.6-274.944 0-151.552 281.6-374.784 281.6-374.784s281.6 222.72 281.6 374.784c0.512 152.064-125.952 274.944-281.6 274.944z" fill="#898989" p-id="1818"></path><path d="M545.28 397.312l-159.232 196.096h122.368l-24.064 122.368 159.232-195.584h-122.88z" fill="#898989" p-id="1819"></path></svg>